<mxfile host="65bd71144e">
    <diagram id="8gasTSMkK_n0Qe0j0Id0" name="PÃ¡gina-1">
        <mxGraphModel dx="508" dy="457" grid="1" gridSize="10" guides="1" tooltips="1" connect="1" arrows="1" fold="1" page="1" pageScale="1" pageWidth="827" pageHeight="1169" math="0" shadow="0">
            <root>
                <mxCell id="0"/>
                <mxCell id="1" parent="0"/>
                <mxCell id="7" style="edgeStyle=none;html=1;entryX=0.5;entryY=0;entryDx=0;entryDy=0;fontSize=14;" edge="1" parent="1" source="2" target="6">
                    <mxGeometry relative="1" as="geometry"/>
                </mxCell>
                <mxCell id="2" value="inicio" style="ellipse;whiteSpace=wrap;html=1;fillColor=#00FF00;" vertex="1" parent="1">
                    <mxGeometry x="230" y="10" width="90" height="70" as="geometry"/>
                </mxCell>
                <mxCell id="10" style="edgeStyle=none;html=1;fontSize=14;" edge="1" parent="1" source="3" target="9">
                    <mxGeometry relative="1" as="geometry"/>
                </mxCell>
                <mxCell id="3" value="q= h/i&lt;br&gt;n=0" style="whiteSpace=wrap;html=1;fontSize=14;fillColor=#FFB366;" vertex="1" parent="1">
                    <mxGeometry x="215" y="250" width="120" height="60" as="geometry"/>
                </mxCell>
                <mxCell id="8" style="edgeStyle=none;html=1;fontSize=14;" edge="1" parent="1" source="6" target="3">
                    <mxGeometry relative="1" as="geometry"/>
                </mxCell>
                <mxCell id="6" value="h" style="shape=parallelogram;perimeter=parallelogramPerimeter;whiteSpace=wrap;html=1;fixedSize=1;fontSize=14;fillColor=#FF33FF;" vertex="1" parent="1">
                    <mxGeometry x="215" y="130" width="120" height="60" as="geometry"/>
                </mxCell>
                <mxCell id="12" style="edgeStyle=none;html=1;fontSize=14;" edge="1" parent="1" source="9" target="11">
                    <mxGeometry relative="1" as="geometry"/>
                </mxCell>
                <mxCell id="17" style="edgeStyle=none;html=1;entryX=0.591;entryY=0.014;entryDx=0;entryDy=0;entryPerimeter=0;fontSize=14;" edge="1" parent="1" source="9" target="13">
                    <mxGeometry relative="1" as="geometry">
                        <Array as="points">
                            <mxPoint x="465" y="400"/>
                        </Array>
                    </mxGeometry>
                </mxCell>
                <mxCell id="9" value="h&amp;gt;=q" style="rhombus;whiteSpace=wrap;html=1;fontSize=14;fillColor=#FF00FF;" vertex="1" parent="1">
                    <mxGeometry x="235" y="360" width="80" height="80" as="geometry"/>
                </mxCell>
                <mxCell id="18" style="edgeStyle=none;html=1;fontSize=14;exitX=0.5;exitY=1;exitDx=0;exitDy=0;" edge="1" parent="1" source="11">
                    <mxGeometry relative="1" as="geometry">
                        <mxPoint x="210" y="610" as="sourcePoint"/>
                        <mxPoint x="275" y="330" as="targetPoint"/>
                        <Array as="points">
                            <mxPoint x="280" y="600"/>
                            <mxPoint x="100" y="600"/>
                            <mxPoint x="100" y="330"/>
                        </Array>
                    </mxGeometry>
                </mxCell>
                <mxCell id="11" value="h= 0.9*h&lt;br&gt;n= n+1" style="whiteSpace=wrap;html=1;fontSize=14;fillColor=#CC0000;" vertex="1" parent="1">
                    <mxGeometry x="215" y="480" width="125" height="70" as="geometry"/>
                </mxCell>
                <mxCell id="16" style="edgeStyle=none;html=1;entryX=0.5;entryY=0;entryDx=0;entryDy=0;fontSize=14;" edge="1" parent="1" source="13" target="14">
                    <mxGeometry relative="1" as="geometry"/>
                </mxCell>
                <mxCell id="13" value="n" style="shape=document;whiteSpace=wrap;html=1;boundedLbl=1;fontSize=14;fillColor=#007FFF;" vertex="1" parent="1">
                    <mxGeometry x="400" y="430" width="110" height="70" as="geometry"/>
                </mxCell>
                <mxCell id="14" value="fin" style="ellipse;whiteSpace=wrap;html=1;fontSize=14;fillColor=#00FF00;" vertex="1" parent="1">
                    <mxGeometry x="415" y="540" width="80" height="70" as="geometry"/>
                </mxCell>
            </root>
        </mxGraphModel>
    </diagram>
</mxfile>